<svg height="512pt" viewBox="-19 0 512 512.001" width="512pt" xmlns="http://www.w3.org/2000/svg"><path d="m404.21875 0h-229.871094c-23.664062 0-42.914062 19.25-42.914062 42.910156v40.488282h-1.804688l-36.5-41.714844-93.128906 81.488281 38.542969 44.046875-.34375.308594v271.796875c0 40.074219 31.421875 72.675781 70.039062 72.675781h295.980469c38.621094 0 70.039062-32.601562 70.039062-72.675781v-366.644531c0-40.074219-31.417968-72.679688-70.039062-72.679688zm-242.785156 42.910156c0-7.117187 5.792968-12.910156 12.914062-12.910156h180.1875l-46.949218 53.398438h-146.152344zm-71.128906 41.105469 16.980468 19.40625c-12.867187 12.160156-30.996094 29.222656-46.550781 43.601563l-18.402344-21.03125zm353.953124 355.304687c0 23.535157-17.960937 42.679688-40.039062 42.679688h-295.980469c-22.078125 0-40.039062-19.144531-40.039062-42.679688v-258.4375c22.917969-20.828124 59.644531-55.589843 72.179687-67.484374h180.777344l73.324219-83.398438h9.738281c22.078125 0 40.039062 19.144531 40.039062 42.679688zm0 0"/><path d="m400.734375 178.804688-21.214844-21.214844-46.003906 46.003906h-150.574219l-46.003906-46.003906-21.210938 21.214844 46.003907 46.003906v150.574218l-46.003907 46.003907 21.210938 21.210937 46.003906-46.003906h150.574219l46.003906 46.003906 21.214844-21.210937-46.003906-46.003907v-150.574218zm-76.003906 187.789062h-133v-133h133zm0 0"/></svg>