<svg height="512pt" viewBox="0 -48 512 512" width="512pt" xmlns="http://www.w3.org/2000/svg"><path d="m348.035156 214.761719c0-4.65625-1.808594-9.027344-5.097656-12.316407l-50.457031-50.457031c-2.964844-2.964843-7.773438-2.964843-10.738281 0l-75.847657 75.847657c-1.421875 1.425781-2.222656 3.355468-2.222656 5.371093 0 2.011719.800781 3.945313 2.222656 5.367188l50.460938 50.457031c3.285156 3.285156 7.65625 5.097656 12.3125 5.097656s9.027343-1.8125 12.3125-5.097656l61.957031-61.957031c3.289062-3.285157 5.097656-7.65625 5.097656-12.3125zm-15.835937 1.574219-61.957031 61.957031c-.5625.566406-1.230469.648437-1.574219.648437-.347657 0-1.011719-.082031-1.578125-.648437l-45.085938-45.085938 22.785156-22.785156c6.453126 18.1875 23.828126 31.253906 44.203126 31.253906 4.195312 0 7.59375-3.398437 7.59375-7.59375 0-4.195312-3.398438-7.59375-7.59375-7.59375-16.472657 0-30.046876-12.625-31.5625-28.707031l29.683593-29.683594 45.085938 45.089844c.566406.5625.648437 1.226562.648437 1.574219 0 .347656-.082031 1.011719-.648437 1.574219zm0 0"/><path d="m509.777344 58.03125-15.546875-15.542969c-17.863281-17.863281-40.148438-30.792969-64.445313-37.390625-4.042968-1.101562-8.21875 1.289063-9.320312 5.335938-1.097656 4.046875 1.292968 8.21875 5.339844 9.316406 21.746093 5.90625 41.695312 17.480469 57.6875 33.476562l10.175781 10.175782-40.503907 40.503906-10.175781-10.175781c-13.734375-13.734375-32.023437-21.296875-51.492187-21.296875s-37.757813 7.5625-51.492188 21.296875l-23.605468 23.609375-40.507813-40.507813 23.609375-23.605469c25.863281-25.867187 61.734375-39.679687 98.398438-37.886718 4.171874.195312 7.746093-3.027344 7.953124-7.214844.203126-4.1875-3.027343-7.75-7.214843-7.953125-40.914063-1.992187-80.988281 13.425781-109.878907 42.316406l-28.148437 28.148438-154.617187 80.5c-8.648438 4.5-14.457032 12.609375-15.941407 22.246093-1.484375 9.636719 1.621094 19.121094 8.515625 26.011719l16.640625 16.644531-64.269531 64.269532c-2.964844 2.964844-2.964844 7.773437 0 10.738281l9.632812 9.636719-58.347656 58.34375c-2.964844 2.964844-2.964844 7.773437 0 10.738281 2.96875 2.964844 7.773438 2.964844 10.742188 0l58.34375-58.347656 32.710937 32.714843-58.34375 58.347657c-2.964843 2.964843-2.964843 7.773437 0 10.738281 1.480469 1.480469 3.425781 2.222656 5.367188 2.222656 1.945312 0 3.886719-.742187 5.371093-2.222656l58.347657-58.347656 9.632812 9.632812c1.484375 1.480469 3.425781 2.222656 5.371094 2.222656 1.941406 0 3.886719-.738281 5.367187-2.222656l18.003907-18.003906 22.875 22.875c11.109375 11.109375 25.882812 17.230469 41.597656 17.230469 15.710937 0 30.484375-6.121094 41.59375-17.230469l12.375-12.375c2.96875-2.964844 2.96875-7.773438.003906-10.738281-2.96875-2.964844-7.773437-2.964844-10.738281 0l-12.378906 12.375c-8.242188 8.242187-19.199219 12.78125-30.855469 12.78125-11.660156 0-22.617187-4.539063-30.859375-12.78125l-96.332031-96.332031 40.898437-40.898438c2.96875-2.964844 2.96875-7.773438 0-10.738281l-22.007812-22.007813c-3.4375-3.4375-4.984375-8.164062-4.246094-12.964844.738281-4.804687 3.636719-8.847656 7.945312-11.089843l150.714844-78.464844 97.761719 97.761719c17.015625 17.015625 17.015625 44.699218 0 61.714844l-79.863281 79.863281c-2.964844 2.964843-2.964844 7.773437 0 10.738281s7.773437 2.964844 10.738281 0l79.863281-79.863281c22.9375-22.9375 22.9375-60.257813 0-83.191407l-45.085937-45.085937 23.609375-23.609375c10.863281-10.867188 25.335937-16.851562 40.753906-16.851562 15.414062 0 29.886719 5.984374 40.75 16.851562l15.546875 15.542969c1.425781 1.425781 3.355469 2.226562 5.371094 2.226562 2.011719 0 3.941406-.800781 5.367187-2.226562l51.246094-51.242188c2.960938-2.964843 2.960938-7.773437-.003906-10.738281zm-380.015625 290.367188-9.625-9.621094c0-.003906-.003907-.007813-.007813-.011719l-43.449218-43.449219c-.007813-.007812-.011719-.011718-.019532-.015625l-9.617187-9.617187 12.632812-12.636719 62.71875 62.71875zm0 0"/><path d="m459.441406 140.464844c-2.71875-2.074219-6.492187-2.074219-9.210937 0-25.800781 19.675781-40.597657 49.535156-40.597657 81.921875 0 1.042969.015626 2.085937.046876 3.117187.847656 28.4375 23.359374 43.3125 45.15625 43.3125 21.796874 0 44.308593-14.875 45.15625-43.308594.03125-1.035156.046874-2.078124.046874-3.121093 0-32.386719-14.800781-62.246094-40.597656-81.921875zm25.371094 84.589844c-.425781 14.222656-9.859375 28.574218-29.976562 28.574218-20.117188 0-29.550782-14.351562-29.972657-28.578125-.027343-.882812-.039062-1.769531-.039062-2.664062 0-25.621094 10.867187-49.390625 30.011719-66.089844 19.148437 16.699219 30.015624 40.46875 30.015624 66.089844 0 .894531-.015624 1.78125-.039062 2.667969zm0 0"/></svg>