<svg height="512pt" viewBox="0 -108 512 512" width="512pt" xmlns="http://www.w3.org/2000/svg"><path d="m15.03125 232.953125c0-4.140625 3.367188-7.511719 7.511719-7.511719h112.078125v-15.03125h-112.078125c-12.429688 0-22.542969 10.113282-22.542969 22.542969 0 12.433594 10.113281 22.546875 22.542969 22.546875h4.105469c3.617187 22.683594 23.308593 40.078125 46.996093 40.078125 16.8125 0 31.609375-8.773437 40.078125-21.976563 8.46875 13.203126 23.261719 21.976563 40.078125 21.976563 23.683594 0 43.378907-17.394531 46.992188-40.078125h63.222656v-15.03125h-241.472656c-4.144531 0-7.511719-3.371094-7.511719-7.515625zm170.449219 22.546875c-3.402344 14.34375-16.3125 25.046875-31.679688 25.046875-15.371093 0-28.277343-10.703125-31.679687-25.046875zm-80.15625 0c-3.402344 14.34375-16.3125 25.046875-31.679688 25.046875-15.371093 0-28.277343-10.703125-31.679687-25.046875zm0 0"/><path d="m149.648438 210.410156h210.410156v15.03125h-210.410156zm0 0"/><path d="m489.457031 210.410156h-114.367187v15.03125h114.367187c4.144531 0 7.511719 3.371094 7.511719 7.511719 0 4.144531-3.367188 7.515625-7.511719 7.515625h-210.410156v15.03125h32.160156c3.613281 22.683594 23.308594 40.078125 46.992188 40.078125 16.816406 0 31.609375-8.773437 40.078125-21.976563 8.46875 13.203126 23.265625 21.976563 40.078125 21.976563 23.6875 0 43.378906-17.394531 46.996093-40.078125h4.105469c12.429688 0 22.542969-10.113281 22.542969-22.546875 0-12.429687-10.113281-22.542969-22.542969-22.542969zm-131.257812 70.136719c-15.367188 0-28.277344-10.703125-31.679688-25.046875h63.359375c-3.402344 14.34375-16.308594 25.046875-31.679687 25.046875zm80.15625 0c-15.367188 0-28.277344-10.703125-31.679688-25.046875h63.359375c-3.402344 14.34375-16.308594 25.046875-31.679687 25.046875zm0 0"/><path d="m478.933594 112.71875c0 37.292969-30.335938 67.632812-67.628906 67.632812h-153.15625v15.03125h153.15625c45.578124 0 82.660156-37.082031 82.660156-82.664062 0-45.578125-37.082032-82.660156-82.660156-82.660156h-11.453126v15.03125h11.453126c37.292968 0 67.628906 30.335937 67.628906 67.628906zm0 0"/><path d="m100.695312 195.382812h142.421876v-15.03125h-142.421876c-37.292968 0-67.628906-30.339843-67.628906-67.632812s30.335938-67.628906 67.628906-67.628906h8.589844v-15.03125h-8.589844c-45.578124 0-82.660156 37.082031-82.660156 82.660156 0 45.582031 37.082032 82.664062 82.660156 82.664062zm0 0"/><path d="m115.726562 0h70.136719v15.03125h-70.136719zm0 0"/><path d="m326.136719 0h70.136719v15.03125h-70.136719zm0 0"/><path d="m233.457031 167.828125v-17.535156h45.085938v17.535156h15.03125v-122.738281h91.25v-15.03125h-260.511719v15.03125h94.113281v122.738281zm0-122.738281h45.085938v20.039062h-45.085938zm0 35.066406h45.085938v20.039062h-45.085938zm0 35.070312h45.085938v20.039063h-45.085938zm0 0"/><path d="m123.242188 162.816406h-15.03125v-15.027344h15.03125zm0-30.058594h-15.03125v-40.078124h15.03125zm0-55.105468h-15.03125v-15.03125h15.03125zm0 0"/><path d="m403.789062 162.816406h-15.03125v-15.027344h15.03125zm0-30.058594h-15.03125v-40.078124h15.03125zm0-55.105468h-15.03125v-15.03125h15.03125zm0 0"/></svg>