<svg height="512pt" viewBox="0 -108 512 512" width="512pt" xmlns="http://www.w3.org/2000/svg"><path d="m420.820312 163.058594v42.34375h61.121094v-68.824219l-24.382812-26.363281h-36.738282v37.8125h15.03125v-22.78125h15.132813l15.925781 17.21875v47.90625h-31.058594v-27.3125zm0 0"/><path d="m496.0625 107.578125-11.03125 10.203125 11.9375 12.910156v119.796875h-16.785156c-3.492188-17.128906-18.671875-30.058593-36.816406-30.058593-18.148438 0-33.328126 12.929687-36.816407 30.058593h-26.5625c-3.492187-17.128906-18.671875-30.058593-36.816406-30.058593s-33.328125 12.929687-36.816406 30.058593h-24.804688v-45.085937h124.242188v-110.214844h58.335937l10.695313 11.5625 11.03125-10.207031-15.15625-16.386719h-79.9375v110.214844h-227.945313v15.03125h47.59375v45.085937h-15.785156c-3.492188-17.128906-18.671875-30.058593-36.816406-30.058593-18.144532 0-33.328125 12.929687-36.816406 30.058593h-16.542969c-3.488281-17.128906-18.671875-30.058593-36.816407-30.058593-18.144531 0-33.324218 12.929687-36.816406 30.058593h-15.785156v-45.085937h132.757812v-15.03125h-147.789062v75.148437h30.816406c3.488282 17.128907 18.671875 30.058594 36.816406 30.058594 18.144532 0 33.324219-12.929687 36.816407-30.058594h16.542969c3.488281 17.128907 18.667968 30.058594 36.816406 30.058594 18.144531 0 33.324218-12.929687 36.816406-30.058594h30.816406v-60.117187h41.078125v60.117187h39.832031c3.492188 17.128907 18.671876 30.058594 36.820313 30.058594 18.144531 0 33.324219-12.929687 36.816406-30.058594h26.558594c3.492187 17.128907 18.671875 30.058594 36.816406 30.058594 18.148438 0 33.328125-12.929687 36.820313-30.058594h31.816406v-140.710937zm-428.429688 172.96875c-12.429687 0-22.542968-10.113281-22.542968-22.542969 0-12.429687 10.113281-22.542968 22.542968-22.542968 12.429688 0 22.542969 10.113281 22.542969 22.542968 0 12.429688-10.113281 22.542969-22.542969 22.542969zm90.175782 0c-12.429688 0-22.542969-10.113281-22.542969-22.542969 0-12.429687 10.113281-22.542968 22.542969-22.542968 12.429687 0 22.542968 10.113281 22.542968 22.542968 0 12.429688-10.113281 22.542969-22.542968 22.542969zm185.363281 0c-12.433594 0-22.546875-10.113281-22.546875-22.542969 0-12.429687 10.113281-22.542968 22.546875-22.542968 12.429687 0 22.542969 10.113281 22.542969 22.542968 0 12.429688-10.113282 22.542969-22.542969 22.542969zm100.195313 0c-12.429688 0-22.546876-10.113281-22.546876-22.542969 0-12.429687 10.117188-22.542968 22.546876-22.542968 12.429687 0 22.542968 10.113281 22.542968 22.542968 0 12.429688-10.113281 22.542969-22.542968 22.542969zm0 0"/><path d="m72.640625 175.34375h18.609375v-15.03125h-18.609375c-31.765625 0-57.609375-25.84375-57.609375-57.613281 0-31.765625 25.84375-57.609375 57.609375-57.609375h87.671875v102.699218h15.03125v-12.523437h25.046875v12.523437h15.03125v-102.699218h53.316406v-15.03125h-196.097656c-40.054687 0-72.640625 32.585937-72.640625 72.640625 0 40.054687 32.585938 72.644531 72.640625 72.644531zm102.703125-130.253906h25.046875v15.027344h-25.046875zm0 30.058594h25.046875v15.027343h-25.046875zm0 30.058593h25.046875v15.027344h-25.046875zm0 0"/><path d="m283.769531 30.058594v15.03125h19.324219c31.765625 0 57.609375 25.84375 57.609375 57.609375 0 31.769531-25.84375 57.613281-57.609375 57.613281h-196.816406v15.03125h196.816406c40.054688 0 72.640625-32.589844 72.640625-72.644531 0-40.054688-32.585937-72.640625-72.640625-72.640625zm0 0"/><path d="m72.640625 0h60.117187v15.03125h-60.117187zm0 0"/><path d="m242.972656 0h60.121094v15.03125h-60.121094zm0 0"/><path d="m123.742188 75.148438h-30.058594v-15.03125h30.058594zm-45.089844 0h-15.027344v-15.03125h15.027344zm0 0"/><path d="m345.675781 102.699219h-15.03125c0-15.191407-12.359375-27.550781-27.550781-27.550781v-15.03125c23.480469 0 42.582031 19.101562 42.582031 42.582031zm0 0"/></svg>