<svg height="480pt" viewBox="0 -80 480 480" width="480pt" xmlns="http://www.w3.org/2000/svg"><path d="m58.320312 274.320312c-3.136718 3.136719-3.136718 8.222657 0 11.359376 3.136719 3.136718 8.222657 3.136718 11.359376 0 3.136718-3.136719 3.136718-8.222657 0-11.359376-3.136719-3.136718-8.222657-3.136718-11.359376 0zm0 0"/><path d="m322.320312 274.320312c-3.105468 3.128907-3.09375 8.183594.03125 11.296876 3.121094 3.113281 8.175782 3.113281 11.296876 0 3.125-3.113282 3.136718-8.167969.03125-11.296876-3.214844-2.941406-8.144532-2.941406-11.359376 0zm0 0"/><path d="m419.039062 272.640625c-1.945312-.800781-4.132812-.800781-6.078124 0-.980469.386719-1.875.957031-2.640626 1.679687-.707031.777344-1.273437 1.671876-1.679687 2.640626-.410156.960937-.628906 1.992187-.640625 3.039062.03125 2.117188.859375 4.144531 2.320312 5.679688.765626.722656 1.660157 1.292968 2.640626 1.679687 1.9375.855469 4.140624.855469 6.078124 0 .96875-.40625 1.863282-.972656 2.640626-1.679687 3.09375-3.15625 3.09375-8.203126 0-11.359376-.777344-.707031-1.671876-1.273437-2.640626-1.679687zm0 0"/><path d="m408 192c39.746094-.046875 71.953125-32.253906 72-72v-16c-.046875-39.746094-32.253906-71.953125-72-72h-128v-24c0-4.417969-3.582031-8-8-8h-48c-4.417969 0-8 3.582031-8 8v24c-39.746094.046875-71.953125 32.253906-72 72v16c.046875 39.746094 32.253906 71.953125 72 72h16v16h-104v-88c0-4.417969-3.582031-8-8-8h-80c-3.03125 0-5.804688 1.710938-7.160156 4.425781l-32 64c-.554688 1.109375-.839844 2.332031-.839844 3.574219v80c0 4.417969 3.582031 8 8 8h16.910156c-.578125 2.628906-.882812 5.308594-.910156 8 0 22.089844 17.910156 40 40 40s40-17.910156 40-40c-.027344-2.691406-.332031-5.371094-.902344-8h185.8125c-.578125 2.628906-.882812 5.308594-.910156 8 0 22.089844 17.910156 40 40 40s40-17.910156 40-40c-.027344-2.691406-.332031-5.371094-.902344-8h9.8125c-.578125 2.628906-.882812 5.308594-.910156 8 0 22.089844 17.910156 40 40 40s40-17.910156 40-40c-.027344-2.691406-.332031-5.371094-.902344-8h16.902344c4.417969 0 8-3.582031 8-8v-48c0-4.417969-3.582031-8-8-8h-80v-16zm-56-64h32v24h-32zm0-16v-24h32v24zm32-64v24h-32v-24zm-152-32h32v16h-32zm-72 104v-16c.035156-30.914062 25.085938-55.964844 56-56h120v112c0 4.417969 3.582031 8 8 8h48c4.417969 0 8-3.582031 8-8v-112h8c30.914062.035156 55.964844 25.085938 56 56v16c-.035156 30.914062-25.085938 55.964844-56 56h-192c-30.914062-.035156-55.964844-25.085938-56-56zm-144 65.886719 28.945312-57.886719h3.054688v64h-32zm0 46.113281h24v-16h-24v-8h40c4.417969 0 8-3.582031 8-8v-72h48v128h-16l-.167969-.191406c-.320312-.425782-.6875-.800782-1.03125-1.222656-.722656-.875-1.441406-1.730469-2.226562-2.53125-.445313-.453126-.925781-.871094-1.390625-1.300782-.742188-.691406-1.496094-1.371094-2.289063-2-.527343-.417968-1.0625-.800781-1.597656-1.195312-.800781-.566406-1.601563-1.117188-2.449219-1.597656-.574218-.351563-1.152344-.6875-1.75-1.007813-.859375-.472656-1.738281-.90625-2.632812-1.304687-.609375-.28125-1.21875-.550782-1.832032-.800782-.945312-.375-1.914062-.6875-2.878906-.992187-.609375-.183594-1.210937-.390625-1.824218-.542969-1.082032-.28125-2.175782-.480469-3.289063-.664062-.527344-.097657-1.054687-.214844-1.601563-.289063-3.328124-.449219-6.703124-.449219-10.03125 0-.535156.074219-1.0625.191406-1.601562.289063-1.109375.183593-2.207031.382812-3.285156.664062-.617188.152344-1.21875.359375-1.824219.542969-.96875.304687-1.9375.617187-2.882813.992187-.613281.242188-1.222656.511719-1.820312.800782-.898438.398437-1.777344.800781-2.640625 1.304687-.601563.320313-1.175781.65625-1.761719 1.007813-.800781.511718-1.640625 1.054687-2.4375 1.597656-.546875.394531-1.082031.800781-1.601562 1.195312-.800782.628906-1.542969 1.300782-2.289063 2-.464843.429688-.941406.847656-1.390625 1.300782-.800781.800781-1.511718 1.664062-2.234375 2.539062-.335937.40625-.703125.796875-1.023437 1.207031l-.214844.199219h-16zm48 72c-13.253906 0-24-10.746094-24-24-.007812-7.472656 3.464844-14.523438 9.394531-19.070312 5.929688-4.546876 13.636719-6.074219 20.851563-4.128907 4.03125 1.097657 7.707031 3.222657 10.664062 6.167969 1.496094 1.484375 2.785156 3.164062 3.832032 4.992188 2.140624 3.652343 3.265624 7.808593 3.257812 12.039062 0 13.253906-10.746094 24-24 24zm264 0c-13.253906 0-24-10.746094-24-24-.007812-7.472656 3.464844-14.523438 9.394531-19.070312 5.929688-4.546876 13.636719-6.074219 20.851563-4.128907 4.03125 1.097657 7.707031 3.222657 10.664062 6.167969 1.496094 1.484375 2.785156 3.164062 3.832032 4.992188 2.140624 3.652343 3.265624 7.808593 3.257812 12.039062 0 13.253906-10.746094 24-24 24zm88 0c-13.253906 0-24-10.746094-24-24-.007812-7.472656 3.464844-14.523438 9.394531-19.070312 5.929688-4.546876 13.636719-6.074219 20.851563-4.128907 4.03125 1.097657 7.707031 3.222657 10.664062 6.167969 1.496094 1.484375 2.785156 3.164062 3.832032 4.992188 2.140624 3.652343 3.265624 7.808593 3.257812 12.039062 0 13.253906-10.746094 24-24 24zm48-48h-16l-.167969-.191406c-.320312-.425782-.6875-.800782-1.03125-1.222656-.722656-.875-1.441406-1.730469-2.226562-2.53125-.445313-.453126-.925781-.871094-1.390625-1.300782-.742188-.691406-1.496094-1.371094-2.289063-2-.527343-.417968-1.0625-.800781-1.597656-1.195312-.800781-.566406-1.601563-1.117188-2.449219-1.597656-.574218-.351563-1.152344-.6875-1.75-1.007813-.859375-.472656-1.738281-.90625-2.632812-1.304687-.609375-.28125-1.21875-.550782-1.832032-.800782-.945312-.375-1.914062-.6875-2.878906-.992187-.609375-.183594-1.210937-.390625-1.824218-.542969-1.082032-.28125-2.175782-.480469-3.289063-.664062-.527344-.097657-1.054687-.214844-1.601563-.289063-3.328124-.449219-6.703124-.449219-10.03125 0-.535156.074219-1.0625.191406-1.601562.289063-1.109375.183593-2.207031.382812-3.285156.664062-.617188.152344-1.21875.359375-1.824219.542969-.96875.304687-1.9375.617187-2.882813.992187-.613281.242188-1.222656.511719-1.820312.800782-.898438.398437-1.777344.800781-2.640625 1.304687-.601563.320313-1.175781.65625-1.761719 1.007813-.800781.511718-1.597656 1.054687-2.398437 1.597656-.546875.394531-1.082031.800781-1.601563 1.195312-.800781.628906-1.542968 1.300782-2.289062 2-.460938.429688-.941406.847656-1.390625 1.300782-.800781.800781-1.511719 1.664062-2.230469 2.539062-.335938.40625-.707031.796875-1.023438 1.207031l-.257812.199219h-24l-.167969-.191406c-.320312-.425782-.6875-.800782-1.03125-1.222656-.722656-.875-1.441406-1.730469-2.226562-2.53125-.445313-.453126-.925781-.871094-1.390625-1.300782-.742188-.691406-1.496094-1.371094-2.289063-2-.527343-.417968-1.0625-.800781-1.597656-1.195312-.800781-.566406-1.601563-1.117188-2.449219-1.597656-.574218-.351563-1.152344-.6875-1.75-1.007813-.859375-.472656-1.738281-.90625-2.632812-1.304687-.609375-.28125-1.21875-.550782-1.832032-.800782-.945312-.375-1.914062-.6875-2.878906-.992187-.609375-.183594-1.210937-.390625-1.824218-.542969-1.082032-.28125-2.175782-.480469-3.289063-.664062-.527344-.097657-1.054687-.214844-1.601563-.289063-3.328124-.449219-6.703124-.449219-10.03125 0-.535156.074219-1.0625.191406-1.601562.289063-1.109375.183593-2.207031.382812-3.285156.664062-.617188.152344-1.21875.359375-1.824219.542969-.96875.304687-1.9375.617187-2.882813.992187-.613281.242188-1.222656.511719-1.820312.800782-.898438.398437-1.777344.800781-2.640625 1.304687-.601563.320313-1.175781.65625-1.761719 1.007813-.800781.511718-1.597656 1.054687-2.398437 1.597656-.546875.394531-1.082031.800781-1.601563 1.195312-.800781.628906-1.542968 1.300782-2.289062 2-.460938.429688-.941406.847656-1.390625 1.300782-.800781.800781-1.511719 1.664062-2.230469 2.539062-.335938.40625-.707031.796875-1.023438 1.207031l-.257812.199219h-168v-32h336zm-88-48h-128v-16h128zm0 0"/></svg>